<?xml version="1.0" encoding="utf-8"?>
<!-- Generator: Adobe Illustrator 28.0.0, SVG Export Plug-In . SVG Version: 6.00 Build 0)  -->
<svg version="1.1" id="Layer_1" focusable="false" xmlns="http://www.w3.org/2000/svg" xmlns:xlink="http://www.w3.org/1999/xlink"
	 x="0px" y="0px" viewBox="0 0 640 512" style="enable-background:new 0 0 640 512;" xml:space="preserve">
<style type="text/css">
	.st0{fill:#F9C650;}
</style>
<path class="st0" d="M591.2,220.2l48.5-207.3c1-4.5-0.9-9.2-5.1-11.6c-5.1-2.8-11.5-1-14.2,4.1L517.1,192.5
	c-1.7-0.1-3.3-0.5-5.1-0.5c-141.1,0-207.1,83.5-308.7,182.3c-3.3,3.3-7.3,4.7-11.2,4.7c-8.2,0-16.1-6.4-16.1-16v-62.9l31.4-16.5
	c10.4-5.9,16.6-15.9,16.6-26.6V144c0-9.4-9-16-18.7-16c-3.5,0-7,0.9-10.3,2.7l-83,47.4l-83-47.4c-3.3-1.9-6.8-2.7-10.3-2.7
	C9,128,0,134.6,0,144v113c0,10.7,6.2,20.7,16.6,26.6L48,300.1v80C48,453,107,512,179.9,512H544c53,0,96-43,96-96v-96
	C640,279.4,620.7,243.6,591.2,220.2z M592,416c0,26.5-21.5,48-48,48H179.9c-46.2,0-83.9-37.6-83.9-83.9v-109l-25.7-13.5L48,245.9
	v-49.1l40.2,23l23.8,13.6l23.8-13.6l40.2-23v49.1l-22.3,11.7L128,271.1V363c0,35.3,28.8,64,64.1,64c17,0,33-6.7,44.7-18.3
	c11.5-11.2,22.6-22.2,33.4-33C352.3,294,406.5,240,512,240c44.1,0,80,35.9,80,80V416z"/>
<g>
	<path class="st0" d="M438.3,423.9h-31.1v-15.6h-15.6v-15.6h31.1v15.6h15.6v-31.1h-31.1v-15.6h-15.6v-31.1h15.6V315h31.1v-15.6h15.6
		V315H485v15.6h15.6v15.6h-31.1v-15.6h-15.6v31.1H485v15.6h15.6v31.1H485V424h-31.1v15.6h-15.6V423.9z M438.3,361.6v-31.1h-15.6
		v31.1H438.3z M453.9,408.3h15.6v-31.1h-15.6V408.3z"/>
</g>
</svg>
