<svg width="1000" height="1000" viewBox="0 0 1000 1000" fill="none" xmlns="http://www.w3.org/2000/svg">
<rect width="1000" height="1000" fill="white"/>
<g clip-path="url(#clip0_41_128)">
<path d="M775.438 463.501L824.695 252.152C825.711 247.564 823.781 242.772 819.516 240.325C814.336 237.47 807.836 239.306 805.094 244.505L700.18 435.26C698.453 435.158 696.828 434.75 695 434.75C551.695 434.75 484.664 519.881 381.477 620.61C378.125 623.975 374.063 625.402 370.102 625.402C361.773 625.402 353.75 618.877 353.75 609.09V544.961L385.641 528.139C396.203 522.124 402.5 511.928 402.5 501.019V385.812C402.5 376.229 393.359 369.5 383.508 369.5C379.953 369.5 376.398 370.417 373.047 372.253L288.75 420.578L204.453 372.253C201.102 370.315 197.547 369.5 193.992 369.5C184.141 369.5 175 376.229 175 385.812V501.019C175 511.928 181.297 522.124 191.859 528.139L223.75 544.961V626.524C223.75 700.847 283.672 761 357.711 761H727.5C781.328 761 825 717.16 825 663.125V565.25C825 523.857 805.398 487.358 775.438 463.501ZM776.25 663.125C776.25 690.142 754.414 712.062 727.5 712.062H357.711C310.789 712.062 272.5 673.728 272.5 626.524V515.395L246.398 501.631L223.75 489.703V439.644L264.578 463.093L288.75 476.958L312.922 463.093L353.75 439.644V489.703L331.102 501.631L305 515.395V609.09C305 645.079 334.25 674.34 370.102 674.34C387.367 674.34 403.617 667.509 415.5 655.682C427.18 644.263 438.453 633.049 449.422 622.038C532.805 538.742 587.852 483.687 695 483.687C739.789 483.687 776.25 520.288 776.25 565.25V663.125Z" fill="#D4A500"/>
<path d="M620.148 671.179H588.563V655.275H572.719V639.37H604.305V655.275H620.148V623.567H588.563V607.662H572.719V575.955H588.563V560.152H620.148V544.248H635.992V560.152H667.578V576.057H683.422V591.962H651.836V576.057H635.992V607.764H667.578V623.669H683.422V655.376H667.578V671.281H635.992V687.186H620.148V671.179ZM620.148 607.662V575.955H604.305V607.662H620.148ZM635.992 655.275H651.836V623.567H635.992V655.275Z" fill="#D4A500"/>
</g>
<rect x="928.5" y="231.5" width="25" height="82" transform="rotate(90 928.5 231.5)" fill="#D4A500"/>
<defs>
<clipPath id="clip0_41_128">
<rect width="650" height="522" fill="white" transform="translate(175 239)"/>
</clipPath>
</defs>
</svg>
