<svg width="992" height="796" viewBox="0 0 992 796" fill="none" xmlns="http://www.w3.org/2000/svg">
<g clip-path="url(#clip0_52_103)">
<path d="M916.36 342.342L991.535 20.0553C993.085 13.0592 990.14 5.75221 983.63 2.02096C975.725 -2.33217 965.805 0.466269 961.62 8.39518L801.505 299.277C798.87 299.122 796.39 298.5 793.6 298.5C574.895 298.5 472.595 428.316 315.115 581.919C310 587.05 303.8 589.226 297.755 589.226C285.045 589.226 272.8 579.276 272.8 564.351V466.562L321.47 440.909C337.59 431.737 347.2 416.19 347.2 399.555V223.875C347.2 209.261 333.25 199 318.215 199C312.79 199 307.365 200.399 302.25 203.198L173.6 276.89L44.95 203.198C39.835 200.244 34.41 199 28.985 199C13.95 199 0 209.261 0 223.875V399.555C0 416.19 9.61 431.737 25.73 440.909L74.4 466.562V590.937C74.4 704.273 165.85 796 278.845 796H843.2C925.35 796 992 729.148 992 646.75V497.5C992 434.38 962.085 378.722 916.36 342.342ZM917.6 646.75C917.6 687.949 884.275 721.375 843.2 721.375H278.845C207.235 721.375 148.8 662.919 148.8 590.937V421.476L108.965 400.487L74.4 382.298V305.962L136.71 341.72L173.6 362.864L210.49 341.72L272.8 305.962V382.298L238.235 400.487L198.4 421.476V564.351C198.4 619.232 243.04 663.851 297.755 663.851C324.105 663.851 348.905 653.435 367.04 635.401C384.865 617.988 402.07 600.887 418.81 584.096C546.065 457.078 630.075 373.125 793.6 373.125C861.955 373.125 917.6 428.938 917.6 497.5V646.75Z" fill="#D4A500"/>
<path d="M679.365 659.032H631.16V634.779H606.98V610.526H655.185V634.779H679.365V586.428H631.16V562.175H606.98V513.824H631.16V489.727H679.365V465.473H703.545V489.727H751.75V513.98H775.93V538.233H727.725V513.98H703.545V562.33H751.75V586.584H775.93V634.934H751.75V659.187H703.545V683.441H679.365V659.032ZM679.365 562.175V513.824H655.185V562.175H679.365ZM703.545 634.779H727.725V586.428H703.545V634.779Z" fill="#D4A500"/>
</g>
<defs>
<clipPath id="clip0_52_103">
<rect width="992" height="796" fill="white"/>
</clipPath>
</defs>
</svg>
